<svg width="156" height="27" viewBox="0 0 156 27" fill="none" xmlns="http://www.w3.org/2000/svg">
<path d="M149.719 20.9645C149.949 20.9238 150.167 20.8333 150.356 20.6993C150.546 20.5655 150.703 20.3916 150.816 20.1904C150.929 19.9892 150.994 19.7658 151.008 19.5364C151.022 19.3071 150.984 19.0776 150.896 18.8646L148.652 14.1975C148.508 13.7935 148.236 13.4448 147.878 13.2015C147.519 12.9582 147.092 12.8326 146.657 12.8429H130.759C129.321 12.8429 128.88 13.7979 129.307 14.5701C129.307 14.5701 132.534 19.3117 133.01 19.9891C133.196 20.3273 133.481 20.6024 133.829 20.7788C134.176 20.9551 134.57 21.0245 134.957 20.978L149.719 20.9645Z" fill="#82D2DE"/>
<path d="M149.691 20.9644C150.586 20.9644 150.999 19.8468 150.999 19.8468L155.534 8.6295C155.648 8.41126 155.702 8.16724 155.689 7.92206C155.677 7.67689 155.599 7.43925 155.464 7.23312C155.328 7.027 155.14 6.85968 154.918 6.74806C154.696 6.63644 154.448 6.58447 154.199 6.5974H140.394C139.017 6.5974 138.377 7.11897 137.744 8.6295C137.475 9.30688 133.614 19.0136 133.614 19.0136C133.092 20.2125 133.498 20.9306 134.888 20.9306L149.691 20.9644Z" fill="#40C8A1"/>
<path d="M150.896 18.8647C150.896 18.8647 148.928 14.9225 148.591 14.2315C148.438 13.789 148.139 13.41 147.74 13.1556C147.342 12.9013 146.868 12.7863 146.395 12.8294H136.072L133.595 19.0477C133.299 19.725 133.278 20.2602 133.595 20.5921C133.989 20.8839 134.48 21.0171 134.971 20.9647H149.809C150.032 20.9154 150.241 20.8182 150.422 20.6801C150.602 20.5422 150.749 20.3667 150.854 20.1661C150.957 19.9657 151.015 19.7451 151.023 19.5201C151.03 19.2952 150.987 19.0714 150.896 18.8647Z" fill="#044477"/>
<path d="M7.08164 6.31987C8.06617 6.3066 9.04148 6.50783 9.93769 6.90918C10.7884 7.2947 11.5044 7.91923 11.9954 8.70422C12.5441 9.63389 12.8115 10.6985 12.7662 11.7727V20.9647H10.4332V12.572C10.4332 10.9869 10.0891 9.87607 9.4009 9.25289C8.70989 8.64328 7.80984 8.3141 6.88206 8.33166C6.14499 8.33496 5.41815 8.50166 4.7555 8.81936C4.03172 9.17166 3.42876 9.72512 3.02122 10.4111C2.52409 11.3136 2.28617 12.3323 2.33302 13.3577V20.9985H0V0H2.31237V8.7584C2.7685 7.94402 3.47418 7.29212 4.32882 6.89563C5.19144 6.50442 6.13193 6.3077 7.08164 6.31987Z" fill="#25252F"/>
<path d="M126.677 20.9647H129.506L123.464 12.213L129.155 6.60437H126.21L118.681 14.0419V0H116.348V20.9647H118.681V16.914L121.764 13.8793L126.677 20.9647Z" fill="#25252F"/>
<path fill-rule="evenodd" clip-rule="evenodd" d="M25.6701 7.18025C24.6104 6.58106 23.4025 6.28324 22.1808 6.31998C20.9211 6.30043 19.6788 6.61138 18.5816 7.22089C17.5191 7.82579 16.6564 8.71953 16.0971 9.79486C15.4682 11.0365 15.1586 12.4112 15.1956 13.7981C15.1594 15.1872 15.469 16.5639 16.0971 17.8082C16.664 18.8899 17.5426 19.7829 18.6229 20.3754C19.7528 20.9836 21.0241 21.2917 22.3116 21.2695C23.1904 21.2826 24.0653 21.1498 24.8993 20.8767C25.6343 20.6375 26.3163 20.2628 26.9089 19.7726C27.4884 19.2923 27.9737 18.7115 28.3403 18.0589L26.5028 16.9954C26.1093 17.6669 25.5508 18.2305 24.8786 18.6345C24.0815 19.0665 23.1794 19.275 22.2703 19.2374C21.3713 19.2542 20.4858 19.0193 19.7171 18.5601C18.9926 18.1153 18.4179 17.4695 18.0654 16.7041C17.7434 15.9869 17.5568 15.2179 17.5148 14.4348H28.5262C28.5694 14.1974 28.5993 13.9576 28.6155 13.7169V12.8228C28.6359 11.675 28.3763 10.5391 27.8585 9.5104C27.3702 8.54384 26.6108 7.73521 25.6701 7.18025ZM19.6552 8.97527C20.3983 8.53031 21.2564 8.3068 22.1258 8.33177C22.6798 8.30885 23.2329 8.39601 23.752 8.58803C24.271 8.78005 24.7455 9.07301 25.1471 9.44944C25.9025 10.253 26.3099 11.315 26.2826 12.4096H17.5974C17.6752 11.8699 17.8281 11.3434 18.0516 10.8449C18.3872 10.0797 18.9451 9.42924 19.6552 8.97527Z" fill="#25252F"/>
<path d="M34.556 19.1662C34.7819 19.2384 35.0203 19.2649 35.2568 19.2441C35.582 19.238 35.9052 19.1949 36.2203 19.1154C36.5663 19.0305 36.9066 18.9242 37.2388 18.7971L36.8603 20.8292C36.5339 20.9691 36.1921 21.0713 35.8418 21.134C35.465 21.2022 35.0826 21.2363 34.6994 21.2356C34.2155 21.2731 33.7292 21.208 33.2732 21.0443C32.8173 20.8807 32.4024 20.6225 32.0566 20.2872C31.42 19.454 31.1141 18.4208 31.1964 17.3813V0H33.5364V17.3204C33.4765 17.8539 33.6214 18.3902 33.9424 18.8242C34.1213 18.9778 34.3301 19.0941 34.556 19.1662Z" fill="#25252F"/>
<path fill-rule="evenodd" clip-rule="evenodd" d="M96.1906 7.18011C95.1331 6.58181 93.9276 6.28401 92.7084 6.31984C91.4511 6.30376 90.2119 6.61452 89.1159 7.22075C88.0537 7.82391 87.1929 8.71828 86.6383 9.79476C86.0041 11.0348 85.6919 12.4102 85.7299 13.798C85.6929 15.188 86.0049 16.5653 86.6383 17.808C87.2028 18.8893 88.079 19.7824 89.1571 20.3753C90.2893 20.9842 91.5629 21.2924 92.8529 21.2694C93.7294 21.2819 94.6019 21.1492 95.4336 20.8765C96.1708 20.6376 96.8551 20.2629 97.4501 19.7724C98.0203 19.2964 98.4983 18.7227 98.8609 18.079L97.0371 17.002C96.646 17.6731 96.0899 18.2367 95.4198 18.6412C94.6203 19.073 93.7159 19.2815 92.8047 19.2441C91.9056 19.2607 91.0202 19.0259 90.2514 18.5667C89.5211 18.1237 88.9432 17.4746 88.5928 16.7039C88.2684 15.9872 88.0795 15.2182 88.0354 14.4347H99.0467C99.0875 14.1971 99.1151 13.9573 99.1292 13.7167C99.1292 13.5874 99.1371 13.452 99.1453 13.3104C99.1543 13.1552 99.1637 12.9926 99.1637 12.8226C99.184 11.6799 98.9268 10.549 98.4136 9.52381C97.9181 8.54768 97.146 7.73365 96.1906 7.18011ZM90.1551 8.97514C90.8957 8.53036 91.7516 8.30681 92.6189 8.33164C93.1763 8.30595 93.7333 8.39175 94.2561 8.58384C94.7789 8.77594 95.2567 9.07036 95.6608 9.4493C96.4188 10.2514 96.8265 11.3144 96.7963 12.4094H88.0905C88.1706 11.8695 88.3258 11.343 88.5516 10.8447C88.885 10.0783 89.4434 9.42725 90.1551 8.97514Z" fill="#25252F"/>
<path d="M80.4645 6.90918C79.5659 6.50771 78.5883 6.30649 77.6016 6.31987C76.652 6.30861 75.7117 6.50528 74.8488 6.89563C73.9958 7.29213 73.2924 7.9442 72.8392 8.7584V0H70.5062V20.9985H72.8392V13.3577C72.7923 12.3323 73.0303 11.3136 73.5274 10.4111C73.9342 9.72205 74.5404 9.16789 75.2686 8.81936C75.9121 8.50961 76.617 8.34309 77.3332 8.33166C78.2846 8.29589 79.2128 8.62632 79.9208 9.25289C80.6091 9.87607 80.96 10.9869 80.96 12.572V20.9647H83.2724V11.7727C83.3157 10.6978 83.0459 9.63318 82.4947 8.70422C82.0101 7.924 81.3044 7.30012 80.4645 6.90918Z" fill="#25252F"/>
<path d="M109.872 18.8987C110.41 18.6821 110.884 18.3349 111.249 17.8894C111.622 17.4176 111.878 16.8651 111.991 16.2772L114.152 17.0224C113.847 17.8587 113.379 18.6291 112.776 19.2915C112.21 19.9247 111.504 20.4207 110.712 20.7411C109.839 21.0929 108.902 21.2657 107.959 21.2492C106.685 21.2714 105.427 20.963 104.311 20.355C103.236 19.7601 102.363 18.8674 101.799 17.7878C101.168 16.5445 100.859 15.1671 100.898 13.7778C100.858 12.3905 101.168 11.0151 101.799 9.77451C102.363 8.69309 103.236 7.79813 104.311 7.20047C105.428 6.59777 106.686 6.29194 107.959 6.31312C108.871 6.29337 109.778 6.44986 110.629 6.77373C111.382 7.07036 112.062 7.52053 112.624 8.09461C113.206 8.68305 113.673 9.3719 114.001 10.1267L111.785 11.1563C111.535 10.3328 111.045 9.60004 110.375 9.04969C109.66 8.53668 108.788 8.27866 107.904 8.31814C107.023 8.29162 106.154 8.51501 105.399 8.96164C104.681 9.40918 104.12 10.0614 103.788 10.8312C103.4 11.7628 103.212 12.7641 103.238 13.771C103.215 14.7755 103.402 15.7739 103.788 16.704C104.118 17.473 104.68 18.1233 105.399 18.5667C106.15 19.0249 107.02 19.2601 107.904 19.2442C108.577 19.2597 109.247 19.1423 109.872 18.8987Z" fill="#25252F"/>
<path d="M65.3799 17.8895C65.0179 18.3378 64.5436 18.6856 64.0035 18.8987C63.3775 19.1423 62.7082 19.2598 62.0353 19.2442C61.1493 19.2595 60.2776 19.0245 59.5234 18.5668C58.8228 18.1143 58.2763 17.4654 57.9542 16.7041C57.5647 15.775 57.3771 14.7758 57.4036 13.771C57.3746 12.7639 57.5621 11.762 57.9542 10.8313C58.2855 10.0635 58.8443 9.41193 59.5577 8.96172C60.3156 8.51596 61.1872 8.29269 62.0697 8.31822C62.9516 8.27867 63.8208 8.53677 64.5334 9.04978C65.2084 9.59759 65.702 10.3311 65.9511 11.1564L68.1672 10.1268C67.8365 9.3733 67.3703 8.68486 66.7907 8.09469C66.2264 7.51902 65.5436 7.06868 64.7881 6.77382C63.9373 6.44945 63.03 6.29293 62.1178 6.3132C60.852 6.30479 59.6054 6.61738 58.4979 7.22088C57.4248 7.81895 56.5537 8.71396 55.9928 9.79486C55.3513 11.0284 55.0297 12.3991 55.0568 13.7846C55.0197 15.1745 55.3318 16.5519 55.9653 17.7946C56.5337 18.8775 57.4149 19.7708 58.4979 20.3619C59.6136 20.9681 60.8711 21.2764 62.1453 21.256C63.0885 21.2717 64.025 21.0988 64.8982 20.748C65.6896 20.4258 66.3958 19.9301 66.9629 19.2984C67.5657 18.6362 68.033 17.8658 68.3392 17.0292L66.1851 16.2841C66.0544 16.876 65.7779 17.4274 65.3799 17.8895Z" fill="#25252F"/>
<path fill-rule="evenodd" clip-rule="evenodd" d="M46.6953 6.33343C47.8516 6.32696 48.9874 6.63396 49.9781 7.22078C50.9975 7.85154 51.8231 8.74374 52.3661 9.80161C52.9978 11.0472 53.3074 12.4269 53.2677 13.8184C53.3061 15.2091 52.9915 16.5874 52.3523 17.8285C51.7944 18.8876 50.9517 19.7756 49.9161 20.3956C48.9104 20.9893 47.7579 21.2988 46.5852 21.2898C45.4643 21.3139 44.3617 21.0072 43.4194 20.4092C42.7453 19.9862 42.1819 19.4131 41.7746 18.7361V27H39.4348V6.61792H41.4994L41.6507 9.14452C41.8795 8.7061 42.1742 8.30418 42.5247 7.95234C43.0466 7.43385 43.6724 7.02786 44.3623 6.76017C45.1047 6.47126 45.897 6.32635 46.6953 6.33343ZM48.2405 18.9076C48.8266 18.6474 49.3418 18.2544 49.7441 17.7606V17.7471C50.5889 16.5991 51.0068 15.1999 50.9277 13.7845C51.0071 12.3752 50.5995 10.981 49.7716 9.82861C49.3816 9.3372 48.8773 8.94526 48.3012 8.6859C47.7252 8.42654 47.094 8.30737 46.4613 8.33844C45.5947 8.32163 44.7422 8.55729 44.0113 9.01581C43.2962 9.48515 42.7288 10.1422 42.3734 10.9125C41.9683 11.821 41.7709 12.8061 41.7952 13.798C41.7725 14.7841 41.965 15.7635 42.3596 16.6701C42.6963 17.4453 43.2531 18.1087 43.9632 18.5802C44.6785 19.0393 45.518 19.2755 46.3718 19.2577C47.0141 19.2877 47.6544 19.1678 48.2405 18.9076Z" fill="#25252F"/>
</svg>
